<?xml version="1.0" standalone="no"?><!-- Generator: Gravit.io --><svg xmlns="http://www.w3.org/2000/svg" xmlns:xlink="http://www.w3.org/1999/xlink" style="isolation:isolate" viewBox="0 0 927.83 315" width="927.83" height="315"><defs><clipPath id="_clipPath_FIKCvHT68FMkzYbyuES7aSbZmHyRVnEN"><rect width="927.83" height="315"/></clipPath></defs><g clip-path="url(#_clipPath_FIKCvHT68FMkzYbyuES7aSbZmHyRVnEN)"><clipPath id="_clipPath_pYDwcSAljH75PLuUYkoYD0G3YfXqAVHB"><rect x="0" y="0" width="927.83" height="315" transform="matrix(1,0,0,1,0,0)" fill="rgb(255,255,255)"/></clipPath><g clip-path="url(#_clipPath_pYDwcSAljH75PLuUYkoYD0G3YfXqAVHB)"><rect x="103.333" y="-174.45" width="125.844" height="560.007" transform="matrix(0.908,0.42,-0.42,0.908,59.626,-60.014)" fill="rgb(255,0,0)"/><rect x="218.945" y="-127.921" width="95.956" height="560.007" transform="matrix(0.908,0.42,-0.42,0.908,88.436,-97.956)" fill="rgb(0,0,0)"/><rect x="308.043" y="-96.737" width="52.697" height="560.007" transform="matrix(0.908,0.42,-0.42,0.908,107.745,-123.386)" fill="rgb(255,255,0)"/><rect x="356.672" y="-78.238" width="35.488" height="560.007" transform="matrix(0.908,0.42,-0.42,0.908,119.199,-138.471)" fill="rgb(0,255,255)"/></g><path d=" M 629.367 238.428 L 629.367 240.042 L 629.367 240.042 Q 629.367 243.404 628.191 245.152 L 628.191 245.152 L 628.191 245.152 Q 627.014 246.9 624.687 246.9 L 624.687 246.9 L 624.687 246.9 Q 622.119 246.9 620.882 244.681 L 620.882 244.681 L 620.814 246.631 L 619.429 246.631 L 619.429 225.975 L 620.909 225.975 L 620.909 234.111 L 620.909 234.111 Q 622.132 231.812 624.661 231.812 L 624.661 231.812 L 624.661 231.812 Q 627.014 231.812 628.17 233.472 L 628.17 233.472 L 628.17 233.472 Q 629.327 235.133 629.367 238.428 L 629.367 238.428 L 629.367 238.428 Z  M 627.875 240.136 L 627.875 238.683 L 627.875 238.683 Q 627.875 235.913 627.054 234.582 L 627.054 234.582 L 627.054 234.582 Q 626.234 233.25 624.365 233.25 L 624.365 233.25 L 624.365 233.25 Q 621.877 233.25 620.909 235.873 L 620.909 235.873 L 620.909 243.081 L 620.909 243.081 Q 621.366 244.224 622.253 244.849 L 622.253 244.849 L 622.253 244.849 Q 623.141 245.475 624.392 245.475 L 624.392 245.475 L 624.392 245.475 Q 626.18 245.475 627.021 244.177 L 627.021 244.177 L 627.021 244.177 Q 627.861 242.879 627.875 240.136 L 627.875 240.136 L 627.875 240.136 Z  M 633.079 232.08 L 636.697 244.17 L 640.166 232.08 L 641.766 232.08 L 636.643 248.958 L 636.36 249.765 L 636.36 249.765 Q 635.325 252.508 633.187 252.508 L 633.187 252.508 L 633.187 252.508 Q 632.676 252.508 632.111 252.32 L 632.111 252.32 L 632.097 250.948 L 632.097 250.948 Q 632.407 251.042 632.783 251.042 L 632.783 251.042 L 632.783 251.042 Q 633.751 251.042 634.37 250.464 L 634.37 250.464 L 634.37 250.464 Q 634.989 249.886 635.392 248.595 L 635.392 248.595 L 636.011 246.537 L 631.438 232.08 L 633.079 232.08 L 633.079 232.08 Z  M 525.939 238.67 L 521.81 238.67 L 521.81 246.631 L 520.277 246.631 L 520.277 227.051 L 525.965 227.051 L 525.965 227.051 Q 528.561 227.051 530.054 228.611 L 530.054 228.611 L 530.054 228.611 Q 531.546 230.171 531.546 232.901 L 531.546 232.901 L 531.546 232.901 Q 531.546 235.685 530.101 237.177 L 530.101 237.177 L 530.101 237.177 Q 528.655 238.67 525.939 238.67 L 525.939 238.67 L 525.939 238.67 Z  M 521.81 228.503 L 521.81 237.231 L 525.965 237.231 L 525.965 237.231 Q 527.902 237.231 528.958 236.108 L 528.958 236.108 L 528.958 236.108 Q 530.013 234.985 530.013 232.928 L 530.013 232.928 L 530.013 232.928 Q 530.013 230.87 528.944 229.687 L 528.944 229.687 L 528.944 229.687 Q 527.875 228.503 525.979 228.503 L 525.979 228.503 L 521.81 228.503 L 521.81 228.503 Z  M 534.236 240.338 L 534.236 238.616 L 534.236 238.616 Q 534.236 235.469 535.661 233.64 L 535.661 233.64 L 535.661 233.64 Q 537.087 231.812 539.548 231.812 L 539.548 231.812 L 539.548 231.812 Q 542.022 231.812 543.441 233.614 L 543.441 233.614 L 543.441 233.614 Q 544.86 235.416 544.873 238.576 L 544.873 238.576 L 544.873 240.122 L 544.873 240.122 Q 544.873 243.323 543.441 245.112 L 543.441 245.112 L 543.441 245.112 Q 542.009 246.9 539.575 246.9 L 539.575 246.9 L 539.575 246.9 Q 537.141 246.9 535.715 245.152 L 535.715 245.152 L 535.715 245.152 Q 534.29 243.404 534.236 240.338 L 534.236 240.338 L 534.236 240.338 Z  M 535.742 238.509 L 535.742 240.122 L 535.742 240.122 Q 535.742 242.637 536.757 244.076 L 536.757 244.076 L 536.757 244.076 Q 537.773 245.515 539.575 245.515 L 539.575 245.515 L 539.575 245.515 Q 541.417 245.515 542.392 244.13 L 542.392 244.13 L 542.392 244.13 Q 543.367 242.745 543.381 240.163 L 543.381 240.163 L 543.381 238.616 L 543.381 238.616 Q 543.381 236.101 542.359 234.656 L 542.359 234.656 L 542.359 234.656 Q 541.337 233.21 539.548 233.21 L 539.548 233.21 L 539.548 233.21 Q 537.813 233.21 536.791 234.622 L 536.791 234.622 L 536.791 234.622 Q 535.769 236.034 535.742 238.509 L 535.742 238.509 L 535.742 238.509 Z  M 548.787 232.08 L 551.382 243.323 L 551.503 244.13 L 551.665 243.256 L 554.637 232.08 L 555.887 232.08 L 558.832 243.162 L 559.048 244.305 L 559.222 243.283 L 561.737 232.08 L 563.27 232.08 L 559.707 246.631 L 558.456 246.631 L 555.296 235.066 L 555.228 234.716 L 555.175 235.079 L 552.068 246.631 L 550.804 246.631 L 547.267 232.08 L 548.787 232.08 L 548.787 232.08 Z  M 571.084 246.9 L 571.084 246.9 L 571.084 246.9 Q 568.515 246.9 567.063 245.219 L 567.063 245.219 L 567.063 245.219 Q 565.61 243.538 565.583 240.432 L 565.583 240.432 L 565.583 238.657 L 565.583 238.657 Q 565.583 235.456 566.982 233.634 L 566.982 233.634 L 566.982 233.634 Q 568.381 231.812 570.828 231.812 L 570.828 231.812 L 570.828 231.812 Q 573.195 231.812 574.439 233.358 L 574.439 233.358 L 574.439 233.358 Q 575.683 234.905 575.71 238.092 L 575.71 238.092 L 575.71 239.49 L 567.063 239.49 L 567.063 240.311 L 567.063 240.311 Q 567.063 242.812 568.132 244.17 L 568.132 244.17 L 568.132 244.17 Q 569.201 245.529 571.151 245.529 L 571.151 245.529 L 571.151 245.529 Q 573.303 245.529 574.634 243.955 L 574.634 243.955 L 575.414 244.95 L 575.414 244.95 Q 573.988 246.9 571.084 246.9 Z  M 570.828 233.21 L 570.828 233.21 L 570.828 233.21 Q 569.066 233.21 568.118 234.454 L 568.118 234.454 L 568.118 234.454 Q 567.17 235.698 567.076 238.092 L 567.076 238.092 L 574.217 238.092 L 574.217 237.702 L 574.217 237.702 Q 574.109 233.21 570.828 233.21 Z  M 584.612 231.986 L 584.585 233.479 L 584.585 233.479 Q 584.047 233.385 583.644 233.385 L 583.644 233.385 L 583.644 233.385 Q 582.407 233.385 581.566 234.232 L 581.566 234.232 L 581.566 234.232 Q 580.726 235.079 580.376 236.586 L 580.376 236.586 L 580.376 246.631 L 578.883 246.631 L 578.883 232.08 L 580.349 232.08 L 580.376 234.259 L 580.376 234.259 Q 581.439 231.812 583.711 231.812 L 583.711 231.812 L 583.711 231.812 Q 584.303 231.812 584.612 231.986 L 584.612 231.986 L 584.612 231.986 Z  M 592.009 246.9 L 592.009 246.9 L 592.009 246.9 Q 589.44 246.9 587.988 245.219 L 587.988 245.219 L 587.988 245.219 Q 586.535 243.538 586.508 240.432 L 586.508 240.432 L 586.508 238.657 L 586.508 238.657 Q 586.508 235.456 587.907 233.634 L 587.907 233.634 L 587.907 233.634 Q 589.306 231.812 591.753 231.812 L 591.753 231.812 L 591.753 231.812 Q 594.12 231.812 595.364 233.358 L 595.364 233.358 L 595.364 233.358 Q 596.608 234.905 596.635 238.092 L 596.635 238.092 L 596.635 239.49 L 587.988 239.49 L 587.988 240.311 L 587.988 240.311 Q 587.988 242.812 589.057 244.17 L 589.057 244.17 L 589.057 244.17 Q 590.126 245.529 592.076 245.529 L 592.076 245.529 L 592.076 245.529 Q 594.228 245.529 595.559 243.955 L 595.559 243.955 L 596.339 244.95 L 596.339 244.95 Q 594.913 246.9 592.009 246.9 Z  M 591.753 233.21 L 591.753 233.21 L 591.753 233.21 Q 589.992 233.21 589.043 234.454 L 589.043 234.454 L 589.043 234.454 Q 588.095 235.698 588.001 238.092 L 588.001 238.092 L 595.142 238.092 L 595.142 237.702 L 595.142 237.702 Q 595.035 233.21 591.753 233.21 Z  M 599.271 240.19 L 599.271 238.683 L 599.271 238.683 Q 599.271 235.268 600.468 233.54 L 600.468 233.54 L 600.468 233.54 Q 601.664 231.812 604.018 231.812 L 604.018 231.812 L 604.018 231.812 Q 606.492 231.812 607.716 234.03 L 607.716 234.03 L 607.716 225.975 L 609.209 225.975 L 609.209 246.631 L 607.81 246.631 L 607.743 244.762 L 607.743 244.762 Q 606.519 246.9 604.004 246.9 L 604.004 246.9 L 604.004 246.9 Q 601.705 246.9 600.501 245.152 L 600.501 245.152 L 600.501 245.152 Q 599.298 243.404 599.271 240.19 L 599.271 240.19 L 599.271 240.19 Z  M 600.79 238.589 L 600.79 240.042 L 600.79 240.042 Q 600.79 242.839 601.631 244.157 L 601.631 244.157 L 601.631 244.157 Q 602.471 245.475 604.3 245.475 L 604.3 245.475 L 604.3 245.475 Q 606.654 245.475 607.716 243.229 L 607.716 243.229 L 607.716 235.685 L 607.716 235.685 Q 606.707 233.25 604.314 233.25 L 604.314 233.25 L 604.314 233.25 Q 602.485 233.25 601.644 234.555 L 601.644 234.555 L 601.644 234.555 Q 600.804 235.859 600.79 238.589 L 600.79 238.589 L 600.79 238.589 Z " fill-rule="evenodd" fill="rgb(0,0,0)"/><path d=" M 545.95 57.799 L 545.95 57.799 Q 558.36 57.799 567.795 61.284 L 567.795 61.284 L 567.795 61.284 Q 577.23 64.769 577.23 70.719 L 577.23 70.719 L 577.23 70.719 Q 577.23 76.669 572.725 85.424 L 572.725 85.424 L 572.725 85.424 Q 568.22 94.179 565.16 94.179 L 565.16 94.179 L 565.16 94.179 Q 564.31 94.179 563.205 93.244 L 563.205 93.244 L 563.205 93.244 Q 562.1 92.309 558.105 91.204 L 558.105 91.204 L 558.105 91.204 Q 554.11 90.099 551.22 90.099 L 551.22 90.099 L 551.22 90.099 Q 541.36 90.099 535.325 97.069 L 535.325 97.069 L 535.325 97.069 Q 529.29 104.039 529.29 118.404 L 529.29 118.404 L 529.29 118.404 Q 529.29 132.769 535.495 139.739 L 535.495 139.739 L 535.495 139.739 Q 541.7 146.709 551.22 146.709 L 551.22 146.709 L 551.22 146.709 Q 555.13 146.709 559.975 145.604 L 559.975 145.604 L 559.975 145.604 Q 564.82 144.499 566.86 142.459 L 566.86 142.459 L 566.86 142.459 Q 567.2 142.119 568.22 142.119 L 568.22 142.119 L 568.22 142.119 Q 569.24 142.119 572.045 145.944 L 572.045 145.944 L 572.045 145.944 Q 574.85 149.769 577.23 155.974 L 577.23 155.974 L 577.23 155.974 Q 579.61 162.179 579.61 165.579 L 579.61 165.579 L 579.61 165.579 Q 579.61 172.209 569.41 176.119 L 569.41 176.119 L 569.41 176.119 Q 559.21 180.029 545.27 180.029 L 545.27 180.029 L 545.27 180.029 Q 522.83 180.029 508.38 164.219 L 508.38 164.219 L 508.38 164.219 Q 493.93 148.409 493.93 119.594 L 493.93 119.594 L 493.93 119.594 Q 493.93 90.779 508.805 74.289 L 508.805 74.289 L 508.805 74.289 Q 523.68 57.799 545.95 57.799 L 545.95 57.799 L 545.95 57.799 Z  M 626.02 106.589 L 647.95 106.589 L 647.95 106.589 Q 651.18 106.589 651.18 118.489 L 651.18 118.489 L 651.18 118.489 Q 651.18 122.059 650.415 126.904 L 650.415 126.904 L 650.415 126.904 Q 649.65 131.749 647.61 131.749 L 647.61 131.749 L 626.02 131.749 L 626.02 148.749 L 657.3 148.749 L 657.3 148.749 Q 660.19 148.749 661.21 156.229 L 661.21 156.229 L 661.21 156.229 Q 661.72 159.459 661.72 163.114 L 661.72 163.114 L 661.72 163.114 Q 661.72 166.769 660.7 172.549 L 660.7 172.549 L 660.7 172.549 Q 659.68 178.329 657.3 178.329 L 657.3 178.329 L 599.16 178.329 L 599.16 178.329 Q 592.7 178.329 592.7 173.059 L 592.7 173.059 L 592.7 63.749 L 592.7 63.749 Q 592.7 59.329 596.61 59.329 L 596.61 59.329 L 657.47 59.329 L 657.47 59.329 Q 661.04 59.329 661.04 74.374 L 661.04 74.374 L 661.04 74.374 Q 661.04 89.419 657.47 89.419 L 657.47 89.419 L 626.02 89.419 L 626.02 106.589 L 626.02 106.589 Z  M 710 147.729 L 710 178.839 L 710 178.839 Q 710 180.029 693.935 180.029 L 693.935 180.029 L 693.935 180.029 Q 677.87 180.029 677.87 179.009 L 677.87 179.009 L 677.87 148.409 L 677.87 148.409 Q 677.87 146.879 693.935 146.879 L 693.935 146.879 L 693.935 146.879 Q 710 146.879 710 147.729 L 710 147.729 L 710 147.729 Z  M 710 93.159 L 710 124.269 L 710 124.269 Q 710 125.459 693.935 125.459 L 693.935 125.459 L 693.935 125.459 Q 677.87 125.459 677.87 124.439 L 677.87 124.439 L 677.87 93.839 L 677.87 93.839 Q 677.87 92.309 693.935 92.309 L 693.935 92.309 L 693.935 92.309 Q 710 92.309 710 93.159 L 710 93.159 L 710 93.159 Z  M 786.5 142.799 L 786.5 142.799 L 786.84 119.679 L 786.84 119.679 Q 786.84 117.299 791.77 116.534 L 791.77 116.534 L 791.77 116.534 Q 796.7 115.769 799.93 115.769 L 799.93 115.769 L 806.56 116.279 L 806.56 116.279 Q 813.02 117.299 813.02 119.849 L 813.02 119.849 L 812.34 173.059 L 812.34 173.059 Q 808.94 175.439 798.655 177.734 L 798.655 177.734 L 798.655 177.734 Q 788.37 180.029 775.11 180.029 L 775.11 180.029 L 775.11 180.029 Q 750.46 180.029 735.33 164.049 L 735.33 164.049 L 735.33 164.049 Q 720.2 148.069 720.2 117.129 L 720.2 117.129 L 720.2 117.129 Q 720.2 90.779 734.99 74.289 L 734.99 74.289 L 734.99 74.289 Q 749.78 57.799 775.96 57.799 L 775.96 57.799 L 775.96 57.799 Q 787.86 57.799 797.465 60.094 L 797.465 60.094 L 797.465 60.094 Q 807.07 62.389 810.64 66.299 L 810.64 66.299 L 810.64 66.299 Q 810.81 67.659 810.81 71.399 L 810.81 71.399 L 810.81 71.399 Q 810.81 75.139 808.26 82.024 L 808.26 82.024 L 808.26 82.024 Q 805.71 88.909 802.48 92.309 L 802.48 92.309 L 802.48 92.309 Q 799.25 95.709 797.805 95.709 L 797.805 95.709 L 797.805 95.709 Q 796.36 95.709 794.745 94.434 L 794.745 94.434 L 794.745 94.434 Q 793.13 93.159 788.37 91.714 L 788.37 91.714 L 788.37 91.714 Q 783.61 90.269 779.19 90.269 L 779.19 90.269 L 779.19 90.269 Q 768.65 90.269 762.105 97.069 L 762.105 97.069 L 762.105 97.069 Q 755.56 103.869 755.56 118.149 L 755.56 118.149 L 755.56 118.149 Q 755.56 132.429 762.275 139.824 L 762.275 139.824 L 762.275 139.824 Q 768.99 147.219 777.745 147.219 L 777.745 147.219 L 777.745 147.219 Q 786.5 147.219 786.5 142.799 Z  M 829.17 170.509 L 829.17 170.509 L 829.17 68.509 L 829.17 68.509 Q 829.17 64.259 831.295 61.794 L 831.295 61.794 L 831.295 61.794 Q 833.42 59.329 836.82 59.329 L 836.82 59.329 L 865.21 59.329 L 865.21 59.329 Q 892.24 59.329 906.265 72.929 L 906.265 72.929 L 906.265 72.929 Q 920.29 86.529 920.29 115.769 L 920.29 115.769 L 920.29 115.769 Q 920.29 178.329 866.91 178.329 L 866.91 178.329 L 837.84 178.329 L 837.84 178.329 Q 829.17 178.329 829.17 170.509 Z  M 863.51 91.629 L 861.81 91.629 L 861.81 142.459 L 861.81 142.459 Q 861.81 146.029 862.32 146.964 L 862.32 146.964 L 862.32 146.964 Q 862.83 147.899 865.38 147.899 L 865.38 147.899 L 865.38 147.899 Q 874.73 147.899 879.575 140.929 L 879.575 140.929 L 879.575 140.929 Q 884.42 133.959 884.42 117.724 L 884.42 117.724 L 884.42 117.724 Q 884.42 101.489 879.405 96.559 L 879.405 96.559 L 879.405 96.559 Q 874.39 91.629 863.51 91.629 L 863.51 91.629 L 863.51 91.629 Z " fill-rule="evenodd" fill="rgb(65,64,66)"/><g id="gdlogo"><path d=" M 777.831 232.451 C 775.488 232.415 772.807 232.904 772.807 232.904 L 772.807 237.476 L 775.503 237.476 L 775.473 239.514 C 775.473 240.269 774.725 240.649 773.232 240.649 C 771.738 240.649 770.417 240.016 769.272 238.753 C 768.124 237.49 767.553 235.642 767.553 233.208 C 767.553 230.768 768.111 228.97 769.228 227.809 C 770.343 226.65 771.804 226.068 773.601 226.068 C 774.356 226.068 775.138 226.19 775.951 226.438 C 776.764 226.685 777.307 226.916 777.585 227.132 C 777.859 227.354 778.12 227.459 778.368 227.459 C 778.614 227.459 779.012 227.172 779.562 226.59 C 780.114 226.01 780.608 225.131 781.044 223.959 C 781.478 222.781 781.696 221.878 781.696 221.237 C 781.696 220.602 781.682 220.163 781.654 219.932 C 781.044 219.265 779.919 218.736 778.279 218.343 C 776.641 217.951 774.806 217.757 772.775 217.757 C 768.306 217.757 764.812 219.164 762.288 221.978 C 759.763 224.792 758.502 228.446 758.502 232.943 C 758.502 238.225 759.793 242.228 762.373 244.955 C 764.958 247.681 768.351 249.043 772.558 249.043 C 774.82 249.043 776.829 248.848 778.583 248.456 C 780.339 248.066 781.507 247.665 782.088 247.259 L 782.262 233.642 C 782.262 232.851 780.174 232.492 777.831 232.451 L 777.831 232.451 Z  M 799.421 226.095 C 798.03 226.095 796.864 226.734 795.918 228.009 C 794.977 229.285 794.504 231.077 794.504 233.381 C 794.504 235.691 794.954 237.46 795.855 238.692 C 796.754 239.928 797.935 240.544 799.4 240.544 C 800.865 240.544 802.055 239.92 802.969 238.669 C 803.882 237.423 804.34 235.639 804.34 233.317 C 804.34 230.997 803.867 229.211 802.925 227.964 C 801.983 226.718 800.816 226.095 799.421 226.095 M 799.4 249.025 C 795.325 249.025 792.002 247.692 789.434 245.025 C 786.868 242.356 785.585 238.461 785.585 233.341 C 785.585 228.218 786.883 224.339 789.478 221.697 C 792.075 219.059 795.426 217.739 799.531 217.739 C 803.636 217.739 806.952 219.036 809.474 221.636 C 812 224.231 813.261 228.165 813.261 233.427 C 813.261 238.692 811.971 242.608 809.387 245.178 C 806.804 247.743 803.477 249.025 799.4 249.025 M 825.527 226.397 L 825.527 239.413 C 825.527 240.02 825.572 240.403 825.659 240.564 C 825.746 240.724 826.007 240.804 826.441 240.804 C 828.039 240.804 829.249 240.208 830.076 239.018 C 830.905 237.83 831.315 235.851 831.315 233.081 C 831.315 230.308 830.886 228.502 830.033 227.663 C 829.176 226.822 827.819 226.397 825.963 226.397 L 825.527 226.397 Z  M 817.173 246.591 L 817.173 220.483 C 817.173 219.757 817.353 219.185 817.718 218.76 C 818.08 218.342 818.551 218.129 819.133 218.129 L 826.4 218.129 C 831.011 218.129 834.515 219.293 836.906 221.614 C 839.301 223.934 840.499 227.588 840.499 232.578 C 840.499 243.255 835.943 248.592 826.833 248.592 L 819.393 248.592 C 817.914 248.592 817.173 247.926 817.173 246.591 M 857.291 226.095 C 855.899 226.095 854.73 226.734 853.786 228.009 C 852.845 229.285 852.374 231.077 852.374 233.381 C 852.374 235.691 852.825 237.46 853.723 238.692 C 854.621 239.928 855.804 240.544 857.269 240.544 C 858.734 240.544 859.925 239.92 860.837 238.669 C 861.752 237.423 862.21 235.639 862.21 233.317 C 862.21 230.997 861.737 229.211 860.794 227.964 C 859.851 226.718 858.685 226.095 857.291 226.095 M 857.269 249.025 C 853.192 249.025 849.871 247.692 847.305 245.025 C 844.737 242.356 843.453 238.461 843.453 233.341 C 843.453 228.218 844.751 224.339 847.346 221.697 C 849.945 219.059 853.294 217.739 857.401 217.739 C 861.506 217.739 864.819 219.036 867.344 221.636 C 869.868 224.231 871.13 228.165 871.13 233.427 C 871.13 238.692 869.839 242.608 867.256 245.178 C 864.674 247.743 861.344 249.025 857.269 249.025 M 887.43 247.957 C 887.43 248.534 885.995 248.826 883.122 248.826 C 880.251 248.826 878.813 248.534 878.813 247.957 L 878.813 226.11 L 873.592 226.11 C 873.098 226.11 872.75 225.444 872.547 224.106 C 872.46 223.458 872.417 222.804 872.419 222.149 C 872.419 221.485 872.461 220.831 872.547 220.193 C 872.75 218.859 873.098 218.188 873.592 218.188 L 892.522 218.188 C 893.015 218.188 893.361 218.858 893.567 220.193 C 893.652 220.831 893.696 221.485 893.696 222.149 C 893.696 222.818 893.652 223.47 893.567 224.107 C 893.362 225.444 893.015 226.11 892.522 226.11 L 887.429 226.11 L 887.43 247.957 Z " fill="rgb(65,64,66)"/><path d=" M 768.634 266.95 C 768.393 267.443 767.951 267.896 767.304 268.305 C 766.658 268.717 765.838 268.922 764.841 268.922 C 763.526 268.922 762.468 268.507 761.665 267.669 C 760.865 266.838 760.464 265.64 760.464 264.076 L 760.464 260.177 C 760.464 258.647 760.841 257.474 761.599 256.655 C 762.355 255.843 763.368 255.43 764.634 255.43 C 765.87 255.43 766.828 255.756 767.507 256.399 C 768.183 257.045 768.538 257.947 768.569 259.098 L 768.553 259.15 L 767.543 259.15 C 767.507 258.267 767.251 257.586 766.768 257.105 C 766.289 256.628 765.575 256.386 764.634 256.386 C 763.68 256.386 762.925 256.709 762.372 257.356 C 761.821 258.002 761.546 258.938 761.546 260.167 L 761.546 264.088 C 761.546 265.363 761.844 266.335 762.437 267.005 C 763.031 267.67 763.831 268.003 764.841 268.003 C 765.578 268.003 766.171 267.872 766.614 267.605 C 767.06 267.341 767.368 267.019 767.543 266.637 L 767.543 263.222 L 764.822 263.222 L 764.822 262.272 L 768.634 262.272 L 768.634 266.95 Z  M 773.645 267.95 C 774.244 267.95 774.777 267.78 775.243 267.435 C 775.709 267.088 776.036 266.65 776.23 266.116 L 776.23 264.008 L 774.498 264.008 C 773.762 264.008 773.173 264.217 772.731 264.634 C 772.289 265.048 772.07 265.566 772.07 266.181 C 772.07 266.701 772.206 267.128 772.484 267.458 C 772.761 267.788 773.148 267.95 773.645 267.95 Z  M 776.391 268.736 C 776.346 268.461 776.305 268.186 776.268 267.909 C 776.243 267.692 776.23 267.472 776.23 267.253 C 775.94 267.732 775.547 268.141 775.081 268.451 C 774.611 268.768 774.087 268.925 773.511 268.925 C 772.704 268.925 772.084 268.675 771.645 268.174 C 771.209 267.672 770.988 266.996 770.988 266.141 C 770.988 265.238 771.305 264.513 771.941 263.976 C 772.577 263.438 773.441 263.169 774.527 263.169 L 776.23 263.169 L 776.23 261.972 C 776.23 261.284 776.054 260.741 775.709 260.349 C 775.357 259.962 774.872 259.766 774.248 259.766 C 773.667 259.766 773.187 259.951 772.811 260.326 C 772.436 260.697 772.25 261.152 772.25 261.693 L 771.239 261.684 L 771.221 261.632 C 771.193 260.897 771.47 260.248 772.057 259.672 C 772.641 259.098 773.39 258.813 774.302 258.813 C 775.203 258.813 775.928 259.087 776.482 259.633 C 777.033 260.185 777.309 260.971 777.309 261.993 L 777.309 266.772 C 777.309 267.12 777.326 267.458 777.356 267.78 C 777.385 268.102 777.439 268.422 777.517 268.736 L 776.391 268.736 Z  M 780.724 258.97 L 780.816 260.482 C 781.072 259.941 781.415 259.524 781.841 259.227 C 782.267 258.935 782.769 258.789 783.346 258.789 C 783.934 258.789 784.43 258.96 784.831 259.306 C 785.231 259.652 785.526 260.174 785.714 260.877 C 785.954 260.228 786.294 259.716 786.735 259.345 C 787.177 258.974 787.712 258.789 788.332 258.789 C 789.187 258.789 789.85 259.135 790.319 259.827 C 790.791 260.52 791.026 261.584 791.026 263.021 L 791.026 268.712 L 789.938 268.712 L 789.938 263.002 C 789.938 261.807 789.773 260.966 789.451 260.482 C 789.128 259.998 788.664 259.754 788.065 259.754 C 787.434 259.754 786.941 260.02 786.587 260.561 C 786.235 261.103 786.017 261.78 785.938 262.597 L 785.938 268.712 L 784.856 268.712 L 784.856 263.008 C 784.856 261.841 784.692 261.006 784.357 260.507 C 784.025 260.008 783.561 259.761 782.967 259.761 C 782.398 259.761 781.938 259.934 781.594 260.278 C 781.247 260.624 781 261.097 780.851 261.698 L 780.851 268.712 L 779.769 268.712 L 779.769 258.97 L 780.724 258.97 Z  M 796.474 259.744 C 795.796 259.744 795.239 260.053 794.803 260.67 C 794.366 261.289 794.141 262.052 794.123 262.961 L 798.617 262.961 L 798.617 262.544 C 798.617 261.74 798.428 261.07 798.051 260.539 C 797.671 260.008 797.146 259.744 796.474 259.744 Z  M 796.627 268.902 C 795.576 268.902 794.717 268.507 794.05 267.718 C 793.385 266.93 793.052 265.923 793.052 264.696 L 793.052 263.078 C 793.052 261.848 793.385 260.823 794.054 260.008 C 794.724 259.196 795.53 258.79 796.474 258.79 C 797.494 258.79 798.285 259.153 798.849 259.879 C 799.415 260.606 799.698 261.583 799.698 262.809 L 799.698 263.878 L 794.123 263.878 L 794.123 264.688 C 794.123 265.631 794.349 266.416 794.798 267.043 C 795.248 267.671 795.86 267.983 796.627 267.983 C 797.159 267.983 797.623 267.889 798.009 267.704 C 798.397 267.515 798.737 267.24 799.003 266.901 L 799.446 267.667 C 799.152 268.04 798.771 268.342 798.305 268.566 C 797.841 268.788 797.28 268.902 796.627 268.902 M 808.52 259.744 C 807.841 259.744 807.283 260.053 806.848 260.67 C 806.413 261.289 806.187 262.052 806.168 262.961 L 810.663 262.961 L 810.663 262.544 C 810.663 261.74 810.475 261.07 810.095 260.539 C 809.717 260.008 809.193 259.744 808.52 259.744 M 808.672 268.902 C 807.622 268.902 806.764 268.507 806.098 267.718 C 805.43 266.93 805.096 265.923 805.096 264.696 L 805.096 263.078 C 805.096 261.848 805.432 260.823 806.099 260.008 C 806.771 259.196 807.577 258.79 808.521 258.79 C 809.539 258.79 810.333 259.153 810.896 259.879 C 811.46 260.606 811.743 261.583 811.743 262.809 L 811.743 263.878 L 806.168 263.878 L 806.168 264.688 C 806.168 265.631 806.394 266.416 806.846 267.043 C 807.294 267.671 807.903 267.983 808.672 267.983 C 809.207 267.983 809.669 267.889 810.054 267.704 C 810.443 267.515 810.784 267.24 811.052 266.901 L 811.492 267.667 C 811.197 268.04 810.817 268.342 810.351 268.566 C 809.887 268.788 809.327 268.902 808.673 268.902 M 814.615 258.97 L 814.704 260.58 C 814.964 260.009 815.307 259.565 815.738 259.256 C 816.165 258.946 816.668 258.789 817.246 258.789 C 818.117 258.789 818.783 259.111 819.246 259.758 C 819.714 260.403 819.946 261.407 819.946 262.769 L 819.946 268.712 L 818.857 268.712 L 818.857 262.778 C 818.857 261.665 818.694 260.888 818.37 260.437 C 818.048 259.986 817.574 259.761 816.957 259.761 C 816.404 259.761 815.94 259.941 815.569 260.306 C 815.195 260.668 814.917 261.15 814.731 261.758 L 814.731 268.712 L 813.65 268.712 L 813.65 258.97 L 814.615 258.97 Z  M 823.142 264.709 C 823.142 265.698 823.329 266.484 823.709 267.069 C 824.084 267.659 824.656 267.951 825.418 267.951 C 825.941 267.951 826.381 267.812 826.743 267.527 C 827.103 267.241 827.387 266.844 827.598 266.341 L 827.598 261.515 C 827.395 260.996 827.117 260.577 826.766 260.254 C 826.416 259.936 825.971 259.777 825.437 259.777 C 824.676 259.777 824.1 260.108 823.718 260.774 C 823.333 261.441 823.141 262.31 823.141 263.378 L 823.142 264.709 Z  M 822.049 263.378 C 822.049 261.998 822.328 260.888 822.888 260.053 C 823.444 259.221 824.218 258.804 825.203 258.804 C 825.75 258.804 826.23 258.938 826.64 259.205 C 827.05 259.468 827.39 259.852 827.663 260.34 L 827.768 258.986 L 828.686 258.986 L 828.686 268.736 C 828.686 269.985 828.396 270.952 827.815 271.636 C 827.233 272.318 826.405 272.664 825.337 272.664 C 824.953 272.664 824.54 272.604 824.099 272.487 C 823.657 272.37 823.266 272.217 822.923 272.024 L 823.222 271.075 C 823.526 271.27 823.857 271.418 824.204 271.515 C 824.566 271.621 824.942 271.674 825.319 271.673 C 826.094 271.673 826.668 271.424 827.039 270.928 C 827.411 270.426 827.598 269.699 827.598 268.736 L 827.598 267.558 C 827.321 267.996 826.982 268.333 826.58 268.565 C 826.18 268.799 825.711 268.916 825.184 268.916 C 824.205 268.916 823.438 268.532 822.884 267.766 C 822.328 267.002 822.049 265.981 822.049 264.709 L 822.049 263.378 Z  M 832.352 268.738 L 831.258 268.738 L 831.258 258.97 L 832.352 258.97 L 832.352 268.738 Z  M 832.352 256.189 L 831.258 256.189 L 831.258 254.65 L 832.352 254.65 L 832.352 256.189 Z  M 835.882 258.97 L 835.97 260.58 C 836.231 260.009 836.572 259.565 837.002 259.256 C 837.432 258.946 837.936 258.789 838.512 258.789 C 839.382 258.789 840.052 259.111 840.516 259.758 C 840.982 260.403 841.212 261.407 841.212 262.769 L 841.212 268.712 L 840.123 268.712 L 840.123 262.778 C 840.123 261.665 839.961 260.888 839.637 260.437 C 839.312 259.986 838.842 259.761 838.223 259.761 C 837.671 259.761 837.208 259.941 836.836 260.306 C 836.464 260.668 836.184 261.15 835.999 261.758 L 835.999 268.712 L 834.917 268.712 L 834.917 258.97 L 835.882 258.97 Z  M 846.664 259.744 C 845.984 259.744 845.427 260.053 844.994 260.67 C 844.558 261.289 844.331 262.052 844.312 262.961 L 848.807 262.961 L 848.807 262.544 C 848.807 261.74 848.62 261.07 848.241 260.539 C 847.862 260.008 847.337 259.744 846.664 259.744 M 846.818 268.902 C 845.765 268.902 844.908 268.507 844.243 267.718 C 843.576 266.93 843.243 265.923 843.243 264.696 L 843.243 263.078 C 843.243 261.848 843.577 260.823 844.245 260.008 C 844.915 259.196 845.722 258.79 846.664 258.79 C 847.683 258.79 848.478 259.153 849.043 259.879 C 849.606 260.606 849.889 261.583 849.889 262.809 L 849.889 263.878 L 844.312 263.878 L 844.312 264.688 C 844.312 265.631 844.54 266.416 844.989 267.043 C 845.439 267.671 846.048 267.983 846.818 267.983 C 847.351 267.983 847.813 267.889 848.198 267.704 C 848.587 267.515 848.928 267.241 849.196 266.901 L 849.638 267.667 C 849.342 268.04 848.962 268.342 848.497 268.566 C 848.033 268.788 847.472 268.902 846.818 268.902" fill="rgb(109,110,113)"/><g id="Group"><path d=" M 661.084 251.841 L 661.084 254.885 Q 698.633 287.545 736.183 254.885 L 736.183 251.841 L 661.084 251.841 Z " fill="rgb(255,255,255)"/><path d=" M 661.084 251.841 L 675.107 253.132 Q 676.215 253.224 676.491 254.424 L 676.86 260.605 L 689.038 261.528 L 689.777 255.9 Q 689.961 254.885 691.16 254.516 L 706.106 254.516 Q 707.306 254.885 707.49 255.9 L 708.228 261.528 L 720.406 260.605 L 720.775 254.424 Q 721.052 253.224 722.159 253.132 L 736.183 251.841 L 736.183 229.145 Q 738.95 225.547 741.349 221.672 Q 738.12 216.229 733.692 211.708 Q 729.724 213.553 726.126 216.044 Q 722.436 212.631 718.008 210.14 Q 718.653 205.435 718.746 200.729 Q 713.302 198.146 707.398 196.854 Q 704.999 200.822 703.154 205.066 Q 698.633 204.42 694.113 205.066 Q 692.268 200.822 689.869 196.854 Q 683.964 198.146 678.521 200.729 Q 678.613 205.435 679.259 210.14 Q 674.831 212.631 671.14 216.044 Q 667.542 213.553 663.575 211.708 Q 659.147 216.229 655.918 221.672 Q 658.316 225.547 661.084 229.145 L 661.084 251.841 Z  M 661.084 254.885 L 661.084 258.483 C 661.084 283.947 736.09 283.947 736.09 258.483 L 736.09 254.885 L 723.728 255.992 L 723.266 262.358 Q 723.082 263.281 721.975 263.557 L 707.029 264.572 Q 705.922 264.572 705.553 263.557 L 704.63 257.561 L 692.637 257.561 L 691.714 263.557 Q 691.345 264.572 690.238 264.572 L 675.292 263.557 Q 674.185 263.281 674 262.358 L 673.539 255.992 L 661.084 254.885 Z " fill="rgb(71,140,191)"/><path d=" M 695.958 245.106 C 696.235 248.243 701.032 248.243 701.309 245.106 L 701.309 237.171 C 701.032 234.035 696.235 234.035 695.958 237.171 L 695.958 245.106 Z " fill="rgb(255,255,255)"/><path d=" M 709.981 238.279 C 709.981 233.696 713.702 229.975 718.284 229.975 C 722.867 229.975 726.588 233.696 726.588 238.279 C 726.588 242.861 722.867 246.582 718.284 246.582 C 713.702 246.582 709.981 242.861 709.981 238.279 Z " fill="rgb(255,255,255)"/><path d=" M 670.679 238.279 C 670.679 233.696 674.4 229.975 678.982 229.975 C 683.565 229.975 687.286 233.696 687.286 238.279 C 687.286 242.861 683.565 246.582 678.982 246.582 C 674.4 246.582 670.679 242.861 670.679 238.279 Z " fill="rgb(255,255,255)"/></g><g id="Group"><path d=" M 674.185 238.832 C 674.185 235.777 676.665 233.297 679.72 233.297 C 682.775 233.297 685.256 235.777 685.256 238.832 C 685.256 241.887 682.775 244.368 679.72 244.368 C 676.665 244.368 674.185 241.887 674.185 238.832 Z " fill="rgb(65,64,66)"/><path d=" M 712.011 238.832 C 712.011 235.777 714.491 233.297 717.546 233.297 C 720.601 233.297 723.082 235.777 723.082 238.832 C 723.082 241.887 720.601 244.368 717.546 244.368 C 714.491 244.368 712.011 241.887 712.011 238.832 Z " fill="rgb(65,64,66)"/></g></g></g></svg>