<?xml version="1.0" encoding="UTF-8" standalone="no"?>
<!-- Generator: Gravit.io -->

<svg
   style="isolation:isolate"
   viewBox="0 0 187 69"
   width="187"
   height="69"
   version="1.1"
   id="svg48"
   sodipodi:docname="Logo.svg"
   inkscape:version="1.1.2 (0a00cf5339, 2022-02-04)"
   xmlns:inkscape="http://www.inkscape.org/namespaces/inkscape"
   xmlns:sodipodi="http://sodipodi.sourceforge.net/DTD/sodipodi-0.dtd"
   xmlns="http://www.w3.org/2000/svg"
   xmlns:svg="http://www.w3.org/2000/svg">
  <sodipodi:namedview
     id="namedview50"
     pagecolor="#ffffff"
     bordercolor="#666666"
     borderopacity="1.0"
     inkscape:pageshadow="2"
     inkscape:pageopacity="0.0"
     inkscape:pagecheckerboard="0"
     showgrid="false"
     inkscape:snap-bbox="true"
     inkscape:snap-object-midpoints="true"
     inkscape:zoom="3.7952984"
     inkscape:cx="81.416523"
     inkscape:cy="26.611873"
     inkscape:window-width="1920"
     inkscape:window-height="954"
     inkscape:window-x="1920"
     inkscape:window-y="32"
     inkscape:window-maximized="1"
     inkscape:current-layer="g46" />
  <defs
     id="defs5">
    <clipPath
       id="_clipPath_FIKCvHT68FMkzYbyuES7aSbZmHyRVnEN">
      <rect
         width="927.83002"
         height="315"
         id="rect2"
         x="0"
         y="0" />
    </clipPath>
  </defs>
  <g
     clip-path="url(#_clipPath_FIKCvHT68FMkzYbyuES7aSbZmHyRVnEN)"
     id="g46"
     transform="matrix(0.20148238,0,0,0.20148238,0.0292971,2.7665261)"
     style="stroke-width:4.96321">
    <clipPath
       id="_clipPath_pYDwcSAljH75PLuUYkoYD0G3YfXqAVHB">
      <rect
         x="0"
         y="0"
         width="927.83002"
         height="315"
         fill="#ffffff"
         id="rect7" />
    </clipPath>
    <g
       clip-path="url(#_clipPath_pYDwcSAljH75PLuUYkoYD0G3YfXqAVHB)"
       id="g18"
       style="stroke-width:4.96321">
      <rect
         x="103.333"
         y="-174.45"
         width="125.844"
         height="560.00702"
         transform="matrix(0.908,0.42,-0.42,0.908,59.626,-60.014)"
         fill="#ff0000"
         id="rect10"
         style="stroke-width:24.6335" />
      <rect
         x="218.94501"
         y="-127.921"
         width="95.956001"
         height="560.00702"
         transform="matrix(0.908,0.42,-0.42,0.908,88.436,-97.956)"
         fill="#000000"
         id="rect12"
         style="stroke-width:24.6335" />
      <rect
         x="308.043"
         y="-96.737"
         width="52.696999"
         height="560.00702"
         transform="matrix(0.908,0.42,-0.42,0.908,107.745,-123.386)"
         fill="#ffff00"
         id="rect14"
         style="stroke-width:24.6335" />
      <rect
         x="356.672"
         y="-78.237999"
         width="35.487999"
         height="560.00702"
         transform="matrix(0.908,0.42,-0.42,0.908,119.199,-138.471)"
         fill="#00ffff"
         id="rect16"
         style="stroke-width:24.6335" />
    </g>
    <path
       d="m 629.367,238.428 v 1.614 0 q 0,3.362 -1.176,5.11 v 0 0 q -1.177,1.748 -3.504,1.748 v 0 0 q -2.568,0 -3.805,-2.219 v 0 l -0.068,1.95 h -1.385 v -20.656 h 1.48 v 8.136 0 q 1.223,-2.299 3.752,-2.299 v 0 0 q 2.353,0 3.509,1.66 v 0 0 q 1.157,1.661 1.197,4.956 z m -1.492,1.708 v -1.453 0 q 0,-2.77 -0.821,-4.101 v 0 0 q -0.82,-1.332 -2.689,-1.332 v 0 0 q -2.488,0 -3.456,2.623 v 0 7.208 0 q 0.457,1.143 1.344,1.768 v 0 0 q 0.888,0.626 2.139,0.626 v 0 0 q 1.788,0 2.629,-1.298 v 0 0 q 0.84,-1.298 0.854,-4.041 z m 5.204,-8.056 3.618,12.09 3.469,-12.09 h 1.6 l -5.123,16.878 -0.283,0.807 v 0 q -1.035,2.743 -3.173,2.743 v 0 0 q -0.511,0 -1.076,-0.188 v 0 l -0.014,-1.372 v 0 q 0.31,0.094 0.686,0.094 v 0 0 q 0.968,0 1.587,-0.578 v 0 0 q 0.619,-0.578 1.022,-1.869 v 0 l 0.619,-2.058 -4.573,-14.457 z m -107.14,6.59 h -4.129 v 7.961 h -1.533 v -19.58 h 5.688 v 0 q 2.596,0 4.089,1.56 v 0 0 q 1.492,1.56 1.492,4.29 v 0 0 q 0,2.784 -1.445,4.276 v 0 0 q -1.446,1.493 -4.162,1.493 z m -4.129,-10.167 v 8.728 h 4.155 v 0 q 1.937,0 2.993,-1.123 v 0 0 q 1.055,-1.123 1.055,-3.18 v 0 0 q 0,-2.058 -1.069,-3.241 v 0 0 q -1.069,-1.184 -2.965,-1.184 v 0 z m 12.426,11.835 v -1.722 0 q 0,-3.147 1.425,-4.976 v 0 0 q 1.426,-1.828 3.887,-1.828 v 0 0 q 2.474,0 3.893,1.802 v 0 0 q 1.419,1.802 1.432,4.962 v 0 1.546 0 q 0,3.201 -1.432,4.99 v 0 0 q -1.432,1.788 -3.866,1.788 v 0 0 q -2.434,0 -3.86,-1.748 v 0 0 q -1.425,-1.748 -1.479,-4.814 z m 1.506,-1.829 v 1.613 0 q 0,2.515 1.015,3.954 v 0 0 q 1.016,1.439 2.818,1.439 v 0 0 q 1.842,0 2.817,-1.385 v 0 0 q 0.975,-1.385 0.989,-3.967 v 0 -1.547 0 q 0,-2.515 -1.022,-3.96 v 0 0 q -1.022,-1.446 -2.811,-1.446 v 0 0 q -1.735,0 -2.757,1.412 v 0 0 q -1.022,1.412 -1.049,3.887 z m 13.045,-6.429 2.595,11.243 0.121,0.807 0.162,-0.874 2.972,-11.176 h 1.25 l 2.945,11.082 0.216,1.143 0.174,-1.022 2.515,-11.203 h 1.533 l -3.563,14.551 h -1.251 l -3.16,-11.565 -0.068,-0.35 -0.053,0.363 -3.107,11.552 h -1.264 l -3.537,-14.551 z m 22.297,14.82 v 0 0 q -2.569,0 -4.021,-1.681 v 0 0 q -1.453,-1.681 -1.48,-4.787 v 0 -1.775 0 q 0,-3.201 1.399,-5.023 v 0 0 q 1.399,-1.822 3.846,-1.822 v 0 0 q 2.367,0 3.611,1.546 v 0 0 q 1.244,1.547 1.271,4.734 v 0 1.398 h -8.647 v 0.821 0 q 0,2.501 1.069,3.859 v 0 0 q 1.069,1.359 3.019,1.359 v 0 0 q 2.152,0 3.483,-1.574 v 0 l 0.78,0.995 v 0 q -1.426,1.95 -4.33,1.95 z m -0.256,-13.69 v 0 0 q -1.762,0 -2.71,1.244 v 0 0 q -0.948,1.244 -1.042,3.638 v 0 h 7.141 v -0.39 0 q -0.108,-4.492 -3.389,-4.492 z m 13.784,-1.224 -0.027,1.493 v 0 q -0.538,-0.094 -0.941,-0.094 v 0 0 q -1.237,0 -2.078,0.847 v 0 0 q -0.84,0.847 -1.19,2.354 v 0 10.045 h -1.493 V 232.08 h 1.466 l 0.027,2.179 v 0 q 1.063,-2.447 3.335,-2.447 v 0 0 q 0.592,0 0.901,0.174 z m 7.397,14.914 v 0 0 q -2.569,0 -4.021,-1.681 v 0 0 q -1.453,-1.681 -1.48,-4.787 v 0 -1.775 0 q 0,-3.201 1.399,-5.023 v 0 0 q 1.399,-1.822 3.846,-1.822 v 0 0 q 2.367,0 3.611,1.546 v 0 0 q 1.244,1.547 1.271,4.734 v 0 1.398 h -8.647 v 0.821 0 q 0,2.501 1.069,3.859 v 0 0 q 1.069,1.359 3.019,1.359 v 0 0 q 2.152,0 3.483,-1.574 v 0 l 0.78,0.995 v 0 q -1.426,1.95 -4.33,1.95 z m -0.256,-13.69 v 0 0 q -1.761,0 -2.71,1.244 v 0 0 q -0.948,1.244 -1.042,3.638 v 0 h 7.141 v -0.39 0 q -0.107,-4.492 -3.389,-4.492 z m 7.518,6.98 v -1.507 0 q 0,-3.415 1.197,-5.143 v 0 0 q 1.196,-1.728 3.55,-1.728 v 0 0 q 2.474,0 3.698,2.218 v 0 -8.055 h 1.493 v 20.656 h -1.399 l -0.067,-1.869 v 0 q -1.224,2.138 -3.739,2.138 v 0 0 q -2.299,0 -3.503,-1.748 v 0 0 q -1.203,-1.748 -1.23,-4.962 z m 1.519,-1.601 v 1.453 0 q 0,2.797 0.841,4.115 v 0 0 q 0.84,1.318 2.669,1.318 v 0 0 q 2.354,0 3.416,-2.246 v 0 -7.544 0 q -1.009,-2.435 -3.402,-2.435 v 0 0 q -1.829,0 -2.67,1.305 v 0 0 q -0.84,1.304 -0.854,4.034 z"
       fill-rule="evenodd"
       fill="#000000"
       id="path20"
       style="stroke-width:24.6335;fill:#e0e0e0;fill-opacity:1" />
    <path
       d="m 545.95,57.799 v 0 q 12.41,0 21.845,3.485 v 0 0 q 9.435,3.485 9.435,9.435 v 0 0 q 0,5.95 -4.505,14.705 v 0 0 q -4.505,8.755 -7.565,8.755 v 0 0 q -0.85,0 -1.955,-0.935 v 0 0 q -1.105,-0.935 -5.1,-2.04 v 0 0 q -3.995,-1.105 -6.885,-1.105 v 0 0 q -9.86,0 -15.895,6.97 v 0 0 q -6.035,6.97 -6.035,21.335 v 0 0 q 0,14.365 6.205,21.335 v 0 0 q 6.205,6.97 15.725,6.97 v 0 0 q 3.91,0 8.755,-1.105 v 0 0 q 4.845,-1.105 6.885,-3.145 v 0 0 q 0.34,-0.34 1.36,-0.34 v 0 0 q 1.02,0 3.825,3.825 v 0 0 q 2.805,3.825 5.185,10.03 v 0 0 q 2.38,6.205 2.38,9.605 v 0 0 q 0,6.63 -10.2,10.54 v 0 0 q -10.2,3.91 -24.14,3.91 v 0 0 q -22.44,0 -36.89,-15.81 v 0 0 q -14.45,-15.81 -14.45,-44.625 v 0 0 q 0,-28.815 14.875,-45.305 v 0 0 q 14.875,-16.49 37.145,-16.49 z m 80.07,48.79 h 21.93 v 0 q 3.23,0 3.23,11.9 v 0 0 q 0,3.57 -0.765,8.415 v 0 0 q -0.765,4.845 -2.805,4.845 v 0 h -21.59 v 17 h 31.28 v 0 q 2.89,0 3.91,7.48 v 0 0 q 0.51,3.23 0.51,6.885 v 0 0 q 0,3.655 -1.02,9.435 v 0 0 q -1.02,5.78 -3.4,5.78 v 0 h -58.14 v 0 q -6.46,0 -6.46,-5.27 v 0 -109.31 0 q 0,-4.42 3.91,-4.42 v 0 h 60.86 v 0 q 3.57,0 3.57,15.045 v 0 0 q 0,15.045 -3.57,15.045 v 0 h -31.45 z m 83.98,41.14 v 31.11 0 q 0,1.19 -16.065,1.19 v 0 0 q -16.065,0 -16.065,-1.02 v 0 -30.6 0 q 0,-1.53 16.065,-1.53 v 0 0 q 16.065,0 16.065,0.85 z m 0,-54.57 v 31.11 0 q 0,1.19 -16.065,1.19 v 0 0 q -16.065,0 -16.065,-1.02 v 0 -30.6 0 q 0,-1.53 16.065,-1.53 v 0 0 q 16.065,0 16.065,0.85 z m 76.5,49.64 v 0 l 0.34,-23.12 v 0 q 0,-2.38 4.93,-3.145 v 0 0 q 4.93,-0.765 8.16,-0.765 v 0 l 6.63,0.51 v 0 q 6.46,1.02 6.46,3.57 v 0 l -0.68,53.21 v 0 q -3.4,2.38 -13.685,4.675 v 0 0 q -10.285,2.295 -23.545,2.295 v 0 0 q -24.65,0 -39.78,-15.98 v 0 0 q -15.13,-15.98 -15.13,-46.92 v 0 0 q 0,-26.35 14.79,-42.84 v 0 0 q 14.79,-16.49 40.97,-16.49 v 0 0 q 11.9,0 21.505,2.295 v 0 0 q 9.605,2.295 13.175,6.205 v 0 0 q 0.17,1.36 0.17,5.1 v 0 0 q 0,3.74 -2.55,10.625 v 0 0 q -2.55,6.885 -5.78,10.285 v 0 0 q -3.23,3.4 -4.675,3.4 v 0 0 q -1.445,0 -3.06,-1.275 v 0 0 q -1.615,-1.275 -6.375,-2.72 v 0 0 q -4.76,-1.445 -9.18,-1.445 v 0 0 q -10.54,0 -17.085,6.8 v 0 0 q -6.545,6.8 -6.545,21.08 v 0 0 q 0,14.28 6.715,21.675 v 0 0 q 6.715,7.395 15.47,7.395 v 0 0 q 8.755,0 8.755,-4.42 z m 42.67,27.71 v 0 -102 0 q 0,-4.25 2.125,-6.715 v 0 0 q 2.125,-2.465 5.525,-2.465 v 0 h 28.39 v 0 q 27.03,0 41.055,13.6 v 0 0 q 14.025,13.6 14.025,42.84 v 0 0 q 0,62.56 -53.38,62.56 v 0 h -29.07 v 0 q -8.67,0 -8.67,-7.82 z m 34.34,-78.88 h -1.7 v 50.83 0 q 0,3.57 0.51,4.505 v 0 0 q 0.51,0.935 3.06,0.935 v 0 0 q 9.35,0 14.195,-6.97 v 0 0 q 4.845,-6.97 4.845,-23.205 v 0 0 q 0,-16.235 -5.015,-21.165 v 0 0 q -5.015,-4.93 -15.895,-4.93 z"
       fill-rule="evenodd"
       fill="#414042"
       id="path22"
       style="fill:#ffffff;fill-opacity:1;stroke-width:24.6335" />
    <g
       id="gdlogo"
       style="stroke-width:4.96321">
      <path
         d="m 777.831,232.451 c -2.343,-0.036 -5.024,0.453 -5.024,0.453 v 4.572 h 2.696 l -0.03,2.038 c 0,0.755 -0.748,1.135 -2.241,1.135 -1.494,0 -2.815,-0.633 -3.96,-1.896 -1.148,-1.263 -1.719,-3.111 -1.719,-5.545 0,-2.44 0.558,-4.238 1.675,-5.399 1.115,-1.159 2.576,-1.741 4.373,-1.741 0.755,0 1.537,0.122 2.35,0.37 0.813,0.247 1.356,0.478 1.634,0.694 0.274,0.222 0.535,0.327 0.783,0.327 0.246,0 0.644,-0.287 1.194,-0.869 0.552,-0.58 1.046,-1.459 1.482,-2.631 0.434,-1.178 0.652,-2.081 0.652,-2.722 0,-0.635 -0.014,-1.074 -0.042,-1.305 -0.61,-0.667 -1.735,-1.196 -3.375,-1.589 -1.638,-0.392 -3.473,-0.586 -5.504,-0.586 -4.469,0 -7.963,1.407 -10.487,4.221 -2.525,2.814 -3.786,6.468 -3.786,10.965 0,5.282 1.291,9.285 3.871,12.012 2.585,2.726 5.978,4.088 10.185,4.088 2.262,0 4.271,-0.195 6.025,-0.587 1.756,-0.39 2.924,-0.791 3.505,-1.197 l 0.174,-13.617 c 0,-0.791 -2.088,-1.15 -4.431,-1.191 z m 21.59,-6.356 c -1.391,0 -2.557,0.639 -3.503,1.914 -0.941,1.276 -1.414,3.068 -1.414,5.372 0,2.31 0.45,4.079 1.351,5.311 0.899,1.236 2.08,1.852 3.545,1.852 1.465,0 2.655,-0.624 3.569,-1.875 0.913,-1.246 1.371,-3.03 1.371,-5.352 0,-2.32 -0.473,-4.106 -1.415,-5.353 -0.942,-1.246 -2.109,-1.869 -3.504,-1.869 m -0.021,22.93 c -4.075,0 -7.398,-1.333 -9.966,-4 -2.566,-2.669 -3.849,-6.564 -3.849,-11.684 0,-5.123 1.298,-9.002 3.893,-11.644 2.597,-2.638 5.948,-3.958 10.053,-3.958 4.105,0 7.421,1.297 9.943,3.897 2.526,2.595 3.787,6.529 3.787,11.791 0,5.265 -1.29,9.181 -3.874,11.751 -2.583,2.565 -5.91,3.847 -9.987,3.847 m 26.127,-22.628 v 13.016 c 0,0.607 0.045,0.99 0.132,1.151 0.087,0.16 0.348,0.24 0.782,0.24 1.598,0 2.808,-0.596 3.635,-1.786 0.829,-1.188 1.239,-3.167 1.239,-5.937 0,-2.773 -0.429,-4.579 -1.282,-5.418 -0.857,-0.841 -2.214,-1.266 -4.07,-1.266 z m -8.354,20.194 v -26.108 c 0,-0.726 0.18,-1.298 0.545,-1.723 0.362,-0.418 0.833,-0.631 1.415,-0.631 h 7.267 c 4.611,0 8.115,1.164 10.506,3.485 2.395,2.32 3.593,5.974 3.593,10.964 0,10.677 -4.556,16.014 -13.666,16.014 h -7.44 c -1.479,0 -2.22,-0.666 -2.22,-2.001 m 40.118,-20.496 c -1.392,0 -2.561,0.639 -3.505,1.914 -0.941,1.276 -1.412,3.068 -1.412,5.372 0,2.31 0.451,4.079 1.349,5.311 0.898,1.236 2.081,1.852 3.546,1.852 1.465,0 2.656,-0.624 3.568,-1.875 0.915,-1.246 1.373,-3.03 1.373,-5.352 0,-2.32 -0.473,-4.106 -1.416,-5.353 -0.943,-1.246 -2.109,-1.869 -3.503,-1.869 m -0.022,22.93 c -4.077,0 -7.398,-1.333 -9.964,-4 -2.568,-2.669 -3.852,-6.564 -3.852,-11.684 0,-5.123 1.298,-9.002 3.893,-11.644 2.599,-2.638 5.948,-3.958 10.055,-3.958 4.105,0 7.418,1.297 9.943,3.897 2.524,2.595 3.786,6.529 3.786,11.791 0,5.265 -1.291,9.181 -3.874,11.751 -2.582,2.565 -5.912,3.847 -9.987,3.847 m 30.161,-1.068 c 0,0.577 -1.435,0.869 -4.308,0.869 -2.871,0 -4.309,-0.292 -4.309,-0.869 V 226.11 h -5.221 c -0.494,0 -0.842,-0.666 -1.045,-2.004 -0.087,-0.648 -0.13,-1.302 -0.128,-1.957 0,-0.664 0.042,-1.318 0.128,-1.956 0.203,-1.334 0.551,-2.005 1.045,-2.005 h 18.93 c 0.493,0 0.839,0.67 1.045,2.005 0.085,0.638 0.129,1.292 0.129,1.956 0,0.669 -0.044,1.321 -0.129,1.958 -0.205,1.337 -0.552,2.003 -1.045,2.003 h -5.093 z"
         fill="#414042"
         id="path24"
         style="fill:#ffffff;fill-opacity:1;stroke-width:24.6335" />
      <path
         d="m 768.634,266.95 c -0.241,0.493 -0.683,0.946 -1.33,1.355 -0.646,0.412 -1.466,0.617 -2.463,0.617 -1.315,0 -2.373,-0.415 -3.176,-1.253 -0.8,-0.831 -1.201,-2.029 -1.201,-3.593 v -3.899 c 0,-1.53 0.377,-2.703 1.135,-3.522 0.756,-0.812 1.769,-1.225 3.035,-1.225 1.236,0 2.194,0.326 2.873,0.969 0.676,0.646 1.031,1.548 1.062,2.699 l -0.016,0.052 h -1.01 c -0.036,-0.883 -0.292,-1.564 -0.775,-2.045 -0.479,-0.477 -1.193,-0.719 -2.134,-0.719 -0.954,0 -1.709,0.323 -2.262,0.97 -0.551,0.646 -0.826,1.582 -0.826,2.811 v 3.921 c 0,1.275 0.298,2.247 0.891,2.917 0.594,0.665 1.394,0.998 2.404,0.998 0.737,0 1.33,-0.131 1.773,-0.398 0.446,-0.264 0.754,-0.586 0.929,-0.968 v -3.415 h -2.721 v -0.95 h 3.812 z m 5.011,1 c 0.599,0 1.132,-0.17 1.598,-0.515 0.466,-0.347 0.793,-0.785 0.987,-1.319 v -2.108 h -1.732 c -0.736,0 -1.325,0.209 -1.767,0.626 -0.442,0.414 -0.661,0.932 -0.661,1.547 0,0.52 0.136,0.947 0.414,1.277 0.277,0.33 0.664,0.492 1.161,0.492 z m 2.746,0.786 c -0.045,-0.275 -0.086,-0.55 -0.123,-0.827 -0.025,-0.217 -0.038,-0.437 -0.038,-0.656 -0.29,0.479 -0.683,0.888 -1.149,1.198 -0.47,0.317 -0.994,0.474 -1.57,0.474 -0.807,0 -1.427,-0.25 -1.866,-0.751 -0.436,-0.502 -0.657,-1.178 -0.657,-2.033 0,-0.903 0.317,-1.628 0.953,-2.165 0.636,-0.538 1.5,-0.807 2.586,-0.807 h 1.703 v -1.197 c 0,-0.688 -0.176,-1.231 -0.521,-1.623 -0.352,-0.387 -0.837,-0.583 -1.461,-0.583 -0.581,0 -1.061,0.185 -1.437,0.56 -0.375,0.371 -0.561,0.826 -0.561,1.367 l -1.011,-0.009 -0.018,-0.052 c -0.028,-0.735 0.249,-1.384 0.836,-1.96 0.584,-0.574 1.333,-0.859 2.245,-0.859 0.901,0 1.626,0.274 2.18,0.82 0.551,0.552 0.827,1.338 0.827,2.36 v 4.779 c 0,0.348 0.017,0.686 0.047,1.008 0.029,0.322 0.083,0.642 0.161,0.956 z m 4.333,-9.766 0.092,1.512 c 0.256,-0.541 0.599,-0.958 1.025,-1.255 0.426,-0.292 0.928,-0.438 1.505,-0.438 0.588,0 1.084,0.171 1.485,0.517 0.4,0.346 0.695,0.868 0.883,1.571 0.24,-0.649 0.58,-1.161 1.021,-1.532 0.442,-0.371 0.977,-0.556 1.597,-0.556 0.855,0 1.518,0.346 1.987,1.038 0.472,0.693 0.707,1.757 0.707,3.194 v 5.691 h -1.088 v -5.71 c 0,-1.195 -0.165,-2.036 -0.487,-2.52 -0.323,-0.484 -0.787,-0.728 -1.386,-0.728 -0.631,0 -1.124,0.266 -1.478,0.807 -0.352,0.542 -0.57,1.219 -0.649,2.036 v 6.115 h -1.082 v -5.704 c 0,-1.167 -0.164,-2.002 -0.499,-2.501 -0.332,-0.499 -0.796,-0.746 -1.39,-0.746 -0.569,0 -1.029,0.173 -1.373,0.517 -0.347,0.346 -0.594,0.819 -0.743,1.42 v 7.014 h -1.082 v -9.742 z m 15.75,0.774 c -0.678,0 -1.235,0.309 -1.671,0.926 -0.437,0.619 -0.662,1.382 -0.68,2.291 h 4.494 v -0.417 c 0,-0.804 -0.189,-1.474 -0.566,-2.005 -0.38,-0.531 -0.905,-0.795 -1.577,-0.795 z m 0.153,9.158 c -1.051,0 -1.91,-0.395 -2.577,-1.184 -0.665,-0.788 -0.998,-1.795 -0.998,-3.022 v -1.618 c 0,-1.23 0.333,-2.255 1.002,-3.07 0.67,-0.812 1.476,-1.218 2.42,-1.218 1.02,0 1.811,0.363 2.375,1.089 0.566,0.727 0.849,1.704 0.849,2.93 v 1.069 h -5.575 v 0.81 c 0,0.943 0.226,1.728 0.675,2.355 0.45,0.628 1.062,0.94 1.829,0.94 0.532,0 0.996,-0.094 1.382,-0.279 0.388,-0.189 0.728,-0.464 0.994,-0.803 l 0.443,0.766 c -0.294,0.373 -0.675,0.675 -1.141,0.899 -0.464,0.222 -1.025,0.336 -1.678,0.336 m 11.893,-9.158 c -0.679,0 -1.237,0.309 -1.672,0.926 -0.435,0.619 -0.661,1.382 -0.68,2.291 h 4.495 v -0.417 c 0,-0.804 -0.188,-1.474 -0.568,-2.005 -0.378,-0.531 -0.902,-0.795 -1.575,-0.795 m 0.152,9.158 c -1.05,0 -1.908,-0.395 -2.574,-1.184 -0.668,-0.788 -1.002,-1.795 -1.002,-3.022 v -1.618 c 0,-1.23 0.336,-2.255 1.003,-3.07 0.672,-0.812 1.478,-1.218 2.422,-1.218 1.018,0 1.812,0.363 2.375,1.089 0.564,0.727 0.847,1.704 0.847,2.93 v 1.069 h -5.575 v 0.81 c 0,0.943 0.226,1.728 0.678,2.355 0.448,0.628 1.057,0.94 1.826,0.94 0.535,0 0.997,-0.094 1.382,-0.279 0.389,-0.189 0.73,-0.464 0.998,-0.803 l 0.44,0.766 c -0.295,0.373 -0.675,0.675 -1.141,0.899 -0.464,0.222 -1.024,0.336 -1.678,0.336 m 5.942,-9.932 0.089,1.61 c 0.26,-0.571 0.603,-1.015 1.034,-1.324 0.427,-0.31 0.93,-0.467 1.508,-0.467 0.871,0 1.537,0.322 2,0.969 0.468,0.645 0.7,1.649 0.7,3.011 v 5.943 h -1.089 v -5.934 c 0,-1.113 -0.163,-1.89 -0.487,-2.341 -0.322,-0.451 -0.796,-0.676 -1.413,-0.676 -0.553,0 -1.017,0.18 -1.388,0.545 -0.374,0.362 -0.652,0.844 -0.838,1.452 v 6.954 h -1.081 v -9.742 z m 8.527,5.739 c 0,0.989 0.187,1.775 0.567,2.36 0.375,0.59 0.947,0.882 1.709,0.882 0.523,0 0.963,-0.139 1.325,-0.424 0.36,-0.286 0.644,-0.683 0.855,-1.186 v -4.826 c -0.203,-0.519 -0.481,-0.938 -0.832,-1.261 -0.35,-0.318 -0.795,-0.477 -1.329,-0.477 -0.761,0 -1.337,0.331 -1.719,0.997 -0.385,0.667 -0.577,1.536 -0.577,2.604 z m -1.093,-1.331 c 0,-1.38 0.279,-2.49 0.839,-3.325 0.556,-0.832 1.33,-1.249 2.315,-1.249 0.547,0 1.027,0.134 1.437,0.401 0.41,0.263 0.75,0.647 1.023,1.135 l 0.105,-1.354 h 0.918 v 9.75 c 0,1.249 -0.29,2.216 -0.871,2.9 -0.582,0.682 -1.41,1.028 -2.478,1.028 -0.384,0 -0.797,-0.06 -1.238,-0.177 -0.442,-0.117 -0.833,-0.27 -1.176,-0.463 l 0.299,-0.949 c 0.304,0.195 0.635,0.343 0.982,0.44 0.362,0.106 0.738,0.159 1.115,0.158 0.775,0 1.349,-0.249 1.72,-0.745 0.372,-0.502 0.559,-1.229 0.559,-2.192 v -1.178 c -0.277,0.438 -0.616,0.775 -1.018,1.007 -0.4,0.234 -0.869,0.351 -1.396,0.351 -0.979,0 -1.746,-0.384 -2.3,-1.15 -0.556,-0.764 -0.835,-1.785 -0.835,-3.057 z m 10.303,5.36 h -1.094 v -9.768 h 1.094 z m 0,-12.549 h -1.094 v -1.539 h 1.094 z m 3.53,2.781 0.088,1.61 c 0.261,-0.571 0.602,-1.015 1.032,-1.324 0.43,-0.31 0.934,-0.467 1.51,-0.467 0.87,0 1.54,0.322 2.004,0.969 0.466,0.645 0.696,1.649 0.696,3.011 v 5.943 h -1.089 v -5.934 c 0,-1.113 -0.162,-1.89 -0.486,-2.341 -0.325,-0.451 -0.795,-0.676 -1.414,-0.676 -0.552,0 -1.015,0.18 -1.387,0.545 -0.372,0.362 -0.652,0.844 -0.837,1.452 v 6.954 h -1.082 v -9.742 z m 10.782,0.774 c -0.68,0 -1.237,0.309 -1.67,0.926 -0.436,0.619 -0.663,1.382 -0.682,2.291 h 4.495 v -0.417 c 0,-0.804 -0.187,-1.474 -0.566,-2.005 -0.379,-0.531 -0.904,-0.795 -1.577,-0.795 m 0.154,9.158 c -1.053,0 -1.91,-0.395 -2.575,-1.184 -0.667,-0.788 -1,-1.795 -1,-3.022 v -1.618 c 0,-1.23 0.334,-2.255 1.002,-3.07 0.67,-0.812 1.477,-1.218 2.419,-1.218 1.019,0 1.814,0.363 2.379,1.089 0.563,0.727 0.846,1.704 0.846,2.93 v 1.069 h -5.577 v 0.81 c 0,0.943 0.228,1.728 0.677,2.355 0.45,0.628 1.059,0.94 1.829,0.94 0.533,0 0.995,-0.094 1.38,-0.279 0.389,-0.189 0.73,-0.463 0.998,-0.803 l 0.442,0.766 c -0.296,0.373 -0.676,0.675 -1.141,0.899 -0.464,0.222 -1.025,0.336 -1.679,0.336"
         fill="#6d6e71"
         id="path26"
         style="fill:#e0e0e0;fill-opacity:1;stroke-width:24.6335" />
      <g
         id="Group"
         style="stroke-width:4.96321">
        <path
           d="m 661.084,251.841 v 3.044 q 37.549,32.66 75.099,0 v -3.044 z"
           fill="#ffffff"
           id="path28"
           style="stroke-width:24.6335" />
        <path
           d="m 661.084,251.841 14.023,1.291 q 1.108,0.092 1.384,1.292 l 0.369,6.181 12.178,0.923 0.739,-5.628 q 0.184,-1.015 1.383,-1.384 h 14.946 q 1.2,0.369 1.384,1.384 l 0.738,5.628 12.178,-0.923 0.369,-6.181 q 0.277,-1.2 1.384,-1.292 l 14.024,-1.291 v -22.696 q 2.767,-3.598 5.166,-7.473 -3.229,-5.443 -7.657,-9.964 -3.968,1.845 -7.566,4.336 -3.69,-3.413 -8.118,-5.904 0.645,-4.705 0.738,-9.411 -5.444,-2.583 -11.348,-3.875 -2.399,3.968 -4.244,8.212 -4.521,-0.646 -9.041,0 -1.845,-4.244 -4.244,-8.212 -5.905,1.292 -11.348,3.875 0.092,4.706 0.738,9.411 -4.428,2.491 -8.119,5.904 -3.598,-2.491 -7.565,-4.336 -4.428,4.521 -7.657,9.964 2.398,3.875 5.166,7.473 z m 0,3.044 v 3.598 c 0,25.464 75.006,25.464 75.006,0 v -3.598 l -12.362,1.107 -0.462,6.366 q -0.184,0.923 -1.291,1.199 l -14.946,1.015 q -1.107,0 -1.476,-1.015 l -0.923,-5.996 h -11.993 l -0.923,5.996 q -0.369,1.015 -1.476,1.015 l -14.946,-1.015 q -1.107,-0.276 -1.292,-1.199 l -0.461,-6.366 z"
           fill="#478cbf"
           id="path30"
           style="stroke-width:24.6335" />
        <path
           d="m 695.958,245.106 c 0.277,3.137 5.074,3.137 5.351,0 v -7.935 c -0.277,-3.136 -5.074,-3.136 -5.351,0 z"
           fill="#ffffff"
           id="path32"
           style="stroke-width:24.6335" />
        <path
           d="m 709.981,238.279 c 0,-4.583 3.721,-8.304 8.303,-8.304 4.583,0 8.304,3.721 8.304,8.304 0,4.582 -3.721,8.303 -8.304,8.303 -4.582,0 -8.303,-3.721 -8.303,-8.303 z"
           fill="#ffffff"
           id="path34"
           style="stroke-width:24.6335" />
        <path
           d="m 670.679,238.279 c 0,-4.583 3.721,-8.304 8.303,-8.304 4.583,0 8.304,3.721 8.304,8.304 0,4.582 -3.721,8.303 -8.304,8.303 -4.582,0 -8.303,-3.721 -8.303,-8.303 z"
           fill="#ffffff"
           id="path36"
           style="stroke-width:24.6335" />
      </g>
      <g
         id="g43"
         style="stroke-width:4.96321">
        <path
           d="m 674.185,238.832 c 0,-3.055 2.48,-5.535 5.535,-5.535 3.055,0 5.536,2.48 5.536,5.535 0,3.055 -2.481,5.536 -5.536,5.536 -3.055,0 -5.535,-2.481 -5.535,-5.536 z"
           fill="#414042"
           id="path39"
           style="stroke-width:24.6335" />
        <path
           d="m 712.011,238.832 c 0,-3.055 2.48,-5.535 5.535,-5.535 3.055,0 5.536,2.48 5.536,5.535 0,3.055 -2.481,5.536 -5.536,5.536 -3.055,0 -5.535,-2.481 -5.535,-5.536 z"
           fill="#414042"
           id="path41"
           style="stroke-width:24.6335" />
      </g>
    </g>
  </g>
</svg>
